<?xml version="1.0"?>
<svg xmlns="http://www.w3.org/2000/svg" height="512px" viewBox="0 0 447.94691 447" width="512px" class=""><g><path d="m286.351562 296.472656h-164.6875l-28.441406 28.441406 26.457032 45.855469 3.296874 5.703125h200.09375c6.367188-.007812 12.46875-2.53125 16.984376-7.015625l103.121093-103.199219c3.050781-2.96875 4.769531-7.042968 4.769531-11.300781 0-4.253906-1.71875-8.332031-4.769531-11.300781-6.292969-6.109375-16.300781-6.109375-22.589843 0l-93.859376 93.753906c-4.496093 4.535156-10.625 7.078125-17.015624 7.0625h-111.359376v-16h88c8.835938 0 16-7.164062 16-16 0-8.835937-7.164062-16-16-16zm0 0" data-original="#000000" class="active-path" data-old_color="#ffffff" fill="#ffffff"/><path d="m0 323.480469 55.425781-32 72 124.703125-55.421875 32.003906zm0 0" data-original="#000000" class="active-path" data-old_color="#ffffff" fill="#ffffff"/><path d="m118.351562 184.472656c.3125-.238281.671876-.40625 1-.632812.640626-.453125 1.320313-.855469 1.992188-1.269532 1.367188-.851562 2.78125-1.621093 4.242188-2.304687.796874-.359375 1.535156-.695313 2.316406-1.007813 1.570312-.59375 3.171875-1.089843 4.800781-1.488281.5625-.144531 1.082031-.382812 1.648437-.503906v-175.320313c-9.554687 3.378907-15.957031 12.394532-16 22.527344zm0 0" data-original="#000000" class="active-path" data-old_color="#ffffff" fill="#ffffff"/><path d="m190.351562 48.472656h80v32h-80zm0 0" data-original="#000000" class="active-path" data-old_color="#ffffff" fill="#ffffff"/><path d="m310.351562 208.472656v-16h-168c-13.253906 0-24 10.746094-24 24s10.746094 24 24 24h168v-16h-168v-16zm0 0" data-original="#000000" class="active-path" data-old_color="#ffffff" fill="#ffffff"/><path d="m310.351562.472656h-160v176h160zm-24 88c0 4.417969-3.582031 8-8 8h-96c-4.417968 0-8-3.582031-8-8v-48c0-4.417968 3.582032-8 8-8h96c4.417969 0 8 3.582032 8 8zm0 0" data-original="#000000" class="active-path" data-old_color="#ffffff" fill="#ffffff"/></g> </svg>
