<?xml version="1.0"?>
<svg xmlns="http://www.w3.org/2000/svg" height="512px" viewBox="-61 0 512 512" width="512px" class=""><g><path d="m175.605469 266.605469c-5.855469 5.859375-15.355469 5.859375-21.210938 0l-19.394531-19.390625-45 45v8.785156h210v-8.785156l-75-75zm0 0" data-original="#000000" class="active-path" data-old_color="#ffffff" fill="#ffffff"/><path d="m90 249.785156 34.394531-34.390625c5.855469-5.859375 15.355469-5.859375 21.210938 0l19.394531 19.390625 49.394531-49.390625c5.855469-5.859375 15.355469-5.859375 21.210938 0l64.394531 64.390625v-98.785156h-210zm0 0" data-original="#000000" class="active-path" data-old_color="#ffffff" fill="#ffffff"/><path d="m375 0h-360c-8.285156 0-15 6.714844-15 15v482c0 8.285156 6.714844 15 15 15h360c8.285156 0 15-6.714844 15-15v-482c0-8.285156-6.714844-15-15-15zm-210 451h-90c-8.285156 0-15-6.714844-15-15s6.714844-15 15-15h90c8.285156 0 15 6.714844 15 15s-6.714844 15-15 15zm0-60h-90c-8.285156 0-15-6.714844-15-15s6.714844-15 15-15h90c8.285156 0 15 6.714844 15 15s-6.714844 15-15 15zm150 60h-90c-8.285156 0-15-6.714844-15-15s6.714844-15 15-15h90c8.285156 0 15 6.714844 15 15s-6.714844 15-15 15zm0-60h-90c-8.285156 0-15-6.714844-15-15s6.714844-15 15-15h90c8.285156 0 15 6.714844 15 15s-6.714844 15-15 15zm15-75c0 8.285156-6.714844 15-15 15h-240c-8.285156 0-15-6.714844-15-15v-180c0-8.285156 6.714844-15 15-15h240c8.285156 0 15 6.714844 15 15zm-15-225h-240c-8.285156 0-15-6.714844-15-15s6.714844-15 15-15h240c8.285156 0 15 6.714844 15 15s-6.714844 15-15 15zm0 0" data-original="#000000" class="active-path" data-old_color="#ffffff" fill="#ffffff"/></g> </svg>
