<?xml version="1.0"?>
<svg xmlns="http://www.w3.org/2000/svg" height="512px" viewBox="0 -46 512 512" width="512px"><g><path d="m342.441406 243.257812 12.117188-18.214843c20.363281-5.289063 78.765625-24.144531 111.078125-72.714844 2.050781-3.082031 4.042969-6.375 5.917969-9.78125l3.625-6.59375-10.242188-22.539063 22.035156-11.585937 1.351563-7.105469c7.957031-41.789062.570312-78.621094.25-80.167968l-2.992188-14.554688-14.582031 2.859375c-3.226562.632813-79.480469 16.160156-118.21875 74.386719-33.234375 49.953125-26.816406 113.230468-23.902344 132.234375l-27.789062 41.769531c11.871094-4.78125 25.839844-8.191406 41.351562-7.992188zm0 0" data-original="#000000" class="active-path" data-old_color="#ffffff" fill="#ffffff"/><path d="m511.9375 339.890625c-5.894531-.273437-13.136719-1.0625-21.632812-2.796875-31.042969-6.339844-64.652344-22.023438-99.894532-46.609375-59.433594-41.464844-107.003906 4.269531-119.410156 18.222656v48.722657c7.171875-5.355469 15.628906-10.683594 25.21875-15.042969 12.097656-5.503907 27.386719-10.042969 44.882812-10.042969 19.796876 0 42.421876 5.804688 66.476563 22.585938 26.382813 18.410156 48.800781 29.222656 66.71875 35.539062h-67.375c-5.460937-3.421875-10.964844-7.066406-16.511719-10.933594-27.078125-18.894531-54.589844-22.207031-81.773437-9.84375-12.90625 5.871094-23.339844 14.152344-30.410157 20.777344h-44.453124c-7.070313-6.625-17.507813-14.90625-30.410157-20.777344-27.179687-12.359375-54.695312-9.050781-81.773437 9.84375-5.546875 3.867188-11.050782 7.511719-16.511719 10.933594h-67.371094c17.914063-6.316406 40.332031-17.128906 66.714844-35.539062 45.320313-31.617188 85.570313-24.273438 111.359375-12.542969 9.585938 4.359375 18.046875 9.6875 25.21875 15.042969v-48.726563c-12.359375-13.902344-59.945312-59.707031-119.414062-18.21875-35.238282 24.585937-68.847657 40.269531-99.890626 46.609375-8.496093 1.734375-15.742187 2.523438-21.632812 2.796875l-.0625 80.578125h512zm0 0" data-original="#000000" class="active-path" data-old_color="#ffffff" fill="#ffffff"/></g> </svg>
